# xmcd
#
# Track frame offsets: 
#        150
#        19480
#        33295
#        45205
#        55987
#        69380
#        88160
#        130872
#
# Disc length: 2314 seconds
#
# Revision: 0
# Processed by: cddbd v1.5.1PL0 Copyright (c) Steve Scherf et al.
# Submitted via: ExactAudioCopy v0.95a5
#
DISCID=64090808
DTITLE=Turner, Joe - The Midnight Special
DYEAR=1980
DGENRE=Blues
TTITLE0=I Left My Heart in San Francisco
TTITLE1=I'm Gonna Sit Right Down and Write Myself a Letter
TTITLE2=I Can't Give You Anything But Love
TTITLE3=You're Driving Me Crazy
TTITLE4=So Long
TTITLE5=After My Laughter Came the Tears
TTITLE6=The Midnight Special
TTITLE7=Stoop Down Baby
EXTD=
EXTT0=
EXTT1=
EXTT2=
EXTT3=
EXTT4=
EXTT5=
EXTT6=
EXTT7=
PLAYORDER=
